<svg xmlns="http://www.w3.org/2000/svg" width="192.41732788085938" height="155.85647583007812" viewBox="1.3232746124267578 40.75560760498047 192.41732788085938 155.85647583007812"><title>Neo4j Graph Visualization</title><desc>Created using Neo4j (http://www.neo4j.com/)</desc><g class="layer relationships"><g class="relationship" transform="translate(30.32327385913127 115.84140879655794) rotate(389.14115423274677)"><path class="outline" fill="#A5ABB6" stroke="none" d="M 24.018736134675446,6.953439040707552 L 24.277555179777966,5.987513214418485 A 104.3300360209945 104.3300360209945 0 0 0 27.156392745490525,6.715148690191299 L 26.925167264768,7.688048878835872 A 105.3300360209945 105.3300360209945 0 0 1 24.018736134675446,6.953439040707552 Z M 72.33966926084628,8.415699351576848 L 72.13973090918364,7.4358908725696296 A 104.3300360209945 104.3300360209945 0 0 0 75.0404017407167,6.800857139249695 L 74.35717817916175,3.8796920352310655 L 81.970324243686,5.693529679624584 L 75.95136648945665,10.695743944607866 L 75.26814292790169,7.774578840589237 A 105.3300360209945 105.3300360209945 0 0 1 72.33966926084628,8.415699351576848"/><text text-anchor="middle" pointer-events="none" font-size="8px" fill="#000000" x="49.60073959521558" y="13.029019690540679" font-family="sans-serif">ACTED_IN</text></g><g class="relationship" transform="translate(30.32327385913127 115.84140879655794) rotate(389.14115423274677)"><path class="outline" fill="#A5ABB6" stroke="none" d="M 24.018736134675446,-6.953439040707552 L 24.277555179777966,-5.987513214418485 A 104.3300360209945 104.3300360209945 0 0 1 26.51389602591828,-6.560297370110916 L 26.27651223504773,-7.531713313891913 A 105.3300360209945 105.3300360209945 0 0 0 24.018736134675446,-6.953439040707552 Z M 72.99299979715323,-8.280224753306129 L 72.78685874623228,-7.301702465810735 A 104.3300360209945 104.3300360209945 0 0 1 75.0404017407167,-6.800857139249695 L 74.35717817916175,-3.8796920352310655 L 81.970324243686,-5.693529679624584 L 75.95136648945665,-10.695743944607866 L 75.26814292790169,-7.774578840589237 A 105.3300360209945 105.3300360209945 0 0 0 72.99299979715323,-8.280224753306129"/><text text-anchor="middle" pointer-events="none" font-size="8px" fill="#000000" x="49.600739595215586" y="-7.029019690540679" font-family="sans-serif">DIRECTED</text></g><g class="relationship" transform="translate(123.17977897448354 167.61207050046713) rotate(293.01151849359394)"><path class="outline" fill="#A5ABB6" stroke="none" d="M 25 0.5 L 32.43361862491228 0.5 L 32.43361862491228 -0.5 L 25 -0.5 Z M 66.88283737491227 0.5 L 74.31645599982456 0.5 L 74.31645599982456 3.5 L 81.31645599982456 0 L 74.31645599982456 -3.5 L 74.31645599982456 -0.5 L 66.88283737491227 -0.5 Z"/><text text-anchor="middle" pointer-events="none" font-size="8px" fill="#000000" x="49.65822799991228" y="3" font-family="sans-serif">GENRE</text></g></g><g class="layer nodes"><g class="node" transform="translate(123.17977897448354,167.61207050046713)"><circle class="outline" cx="0" cy="0" r="25" fill="#68BDF6" stroke="#5CA8DB" stroke-width="2px"/><text text-anchor="middle" pointer-events="none" font-family="sans-serif" dy="1.5625" font-size="25" fill="#FFFFFF"/><text text-anchor="middle" pointer-events="none" y="5" font-size="10px" fill="#FFFFFF" font-family="sans-serif"> Movie</text></g><g class="node" transform="translate(164.74060127997126,69.75560997969053)"><circle class="outline" cx="0" cy="0" r="25" fill="#FF756E" stroke="#E06760" stroke-width="2px"/><text text-anchor="middle" pointer-events="none" font-family="sans-serif" dy="1.5625" font-size="25" fill="#FFFFFF"/><text text-anchor="middle" pointer-events="none" y="5" font-size="10px" fill="#FFFFFF" font-family="sans-serif"> Genre</text></g><g class="node" transform="translate(30.32327385913127,115.84140879655794)"><circle class="outline" cx="0" cy="0" r="25" fill="#6DCE9E" stroke="#60B58B" stroke-width="2px"/><text text-anchor="middle" pointer-events="none" font-family="sans-serif" dy="1.5625" font-size="25" fill="#FFFFFF"/><text text-anchor="middle" pointer-events="none" y="5" font-size="10px" fill="#FFFFFF" font-family="sans-serif"> Person</text></g></g></svg>